Format                                   : AVI
Format/Info                              : Audio Video Interleave
File size                                : 174 MiB
Duration                                 : 21mn 17s
Overall bit rate                         : 1 144 Kbps
Writing application                      : Lavf52.39.1

Video
ID                                       : 0
Format                                   : xvid
Codec ID                                 : xvid
Duration                                 : 21mn 17s
Bit rate                                 : 1 068 Kbps
Width                                    : 640 pixels
Height                                   : 360 pixels
Display aspect ratio                     : 16:9
Frame rate                               : 23.976 fps
Bits/(Pixel*Frame)                       : 0.193
Stream size                              : 163 MiB (93%)

Audio
ID                                       : 1
Format                                   : MPEG Audio
Format version                           : Version 1
Format profile                           : Layer 3
Mode                                     : Joint stereo
Mode extension                           : MS Stereo
Codec ID                                 : 55
Codec ID/Hint                            : MP3
Duration                                 : 21mn 17s
Bit rate mode                            : Constant
Bit rate                                 : 64.0 Kbps
Channel(s)                               : 2 channels
Sampling rate                            : 44.1 KHz
Compression mode                         : Lossy
Stream size                              : 9.75 MiB (6%)
Alignment                                : Aligned on interleaves
Interleave, duration                     : 26 ms (0.63 video frame)
